# xmcd
#
# Track frame offsets: 
#        150
#        29912
#        67670
#        104652
#        127610
#        159762
#        185750
#        211905
#        240050
#        268757
#
# Disc length: 3939 seconds
#
# Revision: 1
# Processed by: cddbd v1.5.2PL0 Copyright (c) Steve Scherf et al.
# Submitted via: ExactAudioCopy v0.99pb3
#
DISCID=7e0f610a
DTITLE=David Sanchez - Travesia
DYEAR=2001
DGENRE=Jazz
TTITLE0=Prince Of Darkness
TTITLE1=La Maquina (Viajando En El Tren)
TTITLE2=Paz Pa Vieques (Seis Chorreao) - Peace For Vieques
TTITLE3=Ill Wind
TTITLE4=Joyful
TTITLE5=River Tales
TTITLE6=No Quiero Piedras En Mi Camino
TTITLE7=Carla's Changes
TTITLE8=Pra Dizer Adeus
TTITLE9=The Power Of The Word
EXTD=
EXTT0=
EXTT1=
EXTT2=
EXTT3=
EXTT4=
EXTT5=
EXTT6=
EXTT7=
EXTT8=
EXTT9=
PLAYORDER=
